# xmcd
#
# Track frame offsets:
#	150
#	20785
#	40972
#	60055
#	69978
#	84141
#	99884
#	121987
#	133898
#	153067
#	172162
#	189857
#
# Disc length: 2777 seconds
#
# Revision: 1
# Processed by: cddbd v1.4PL0 Copyright (c) Steve Scherf et al.
# Submitted via: EasyCDDAExtractor 5.0.6
#
DISCID=8c0ad70c
DTITLE=Carole Desfossés and Fréquences - Notre Fils
DYEAR=2002
DGENRE=Freestyle
TTITLE0=La dernière chanson
TTITLE1=Listen to me cowboy
TTITLE2=Notre fils
TTITLE3=Les petits canards
TTITLE4=Petit Gaby
TTITLE5=Vous souvenez-vous
TTITLE6=Dis-lui
TTITLE7=18 Roues
TTITLE8=Amoureuse de toi
TTITLE9=Combien de chanson
TTITLE10=Victime
TTITLE11=Lost my life
EXTD=
EXTT0=
EXTT1=
EXTT2=
EXTT3=
EXTT4=
EXTT5=
EXTT6=
EXTT7=
EXTT8=
EXTT9=
EXTT10=
EXTT11=
PLAYORDER=
